<?xml  version="1.0" encoding="UTF-8"?>
<!DOCTYPE svg PUBLIC "-//W3C//DTD SVG 1.0//EN" "http://www.w3.org/TR/2001/REC-SVG-20010904/DTD/svg10.dtd" >
<svg xmlns="http://www.w3.org/2000/svg" >
<metadata>
<version>1.0</version>
<id><![CDATA[Proxima N W01 At Cd Light It]]></id>
<vendor>Monotype Imaging Inc.</vendor>
<credits>
<name>Fonts.com WebFonts</name>
<URL>http://webfonts.fonts.com</URL>
<role>Home of the Web fonts</role>
</credits>
<license>
<URL>http://webfonts.fonts.com/Legal</URL>
</license>
<copyright><![CDATA[Copyright (c) Mark Simonson, 2005. All rights reserved.]]></copyright>
<trademark><![CDATA[Proxima Nova is a trademark of Mark Simonson.]]></trademark>
<licensee>
<name></name>
</licensee>
</metadata>
<defs >
<font horiz-adv-x="420" id="27112b44-8656-4976-b6cf-5f0ba70748bb">
<font-face font-family="" panose-1="2 0 5 6 3 0 0 2 0 4" ascent="741" descent="-259" units-per-em="1000" alphabetic="0">
</font-face>
<missing-glyph horiz-adv-x="0" />

<glyph unicode="&#xA;" />
<glyph unicode="&#xD;" horiz-adv-x="0" />
<glyph unicode=" " horiz-adv-x="217" />
<glyph unicode="!" horiz-adv-x="218" d="M73 173L169 667H235L113 173H73ZM58 -10Q41 -10 30 1T19 30Q19 50 32 63T66 76Q83 76 94 65T105 37Q105 17 92 4T58 -10Z"  />
<glyph unicode="&quot;" horiz-adv-x="315" d="M118 429Q125 484 130 528Q135 566 138 598T143 634Q145 653 156 665T185 677Q198 677 207 668T216 645Q216 640 214 634T211 625Q211 624 208 616T201 593T190 562T178 526Q164 483 146 429H118ZM248 429Q255 484 260 528Q265 566 268 598T273 634Q275 653 286 665T315 677Q328 677 337 668T346 645Q346 640 344 634T341 625Q341 624 338 616T331 593T320 562T308 526Q294 483 276 429H248Z"  />
<glyph unicode="#" horiz-adv-x="494" d="M146 0L241 186H145L51 0H5L99 186H8L27 227H119L228 440H135L153 480H248L341 667H387L294 480H389L482 667H528L434 480H525L508 440H414L305 227H400L381 186H286L192 0H146ZM369 440H273L165 227H259L369 440Z"  />
<glyph unicode="$" horiz-adv-x="454" d="M156 -8Q106 0 66 23T6 79L46 120Q66 88 97 68T167 41L230 325Q207 340 186 356T147 393T119 437T108 493Q108 532 123 565T166 624T228 663T302 678H309L329 768H374L352 673Q391 665 422 646T473 600L435 560Q418 585 394 600T341 622L284 363Q306 347 327 330T365 293T392 248T402 192Q402 151 388 115T348 50T285 6T200 -12L181 -100H136L156 -8ZM343 186Q343 223 322 249T269 298L212 39Q243 41 267 53T308 86T334 131T343 186ZM168 499Q168 464 190 439T245 390L297 627Q269 626 246 616T205 587T178 547T168 499Z"  />
<glyph unicode="%" horiz-adv-x="641" d="M74 0L569 667H611L114 0H74ZM432 -12Q403 -12 381 -2T343 25T319 65T310 115Q310 158 323 195T359 258T410 300T469 315Q497 315 520 306T558 279T582 239T591 189Q591 145 578 109T542 45T491 3T432 -12ZM433 26Q454 26 474 38T511 71T537 122T547 185Q547 229 525 253T468 277Q447 277 427 265T390 232T364 181T354 118Q354 74 376 50T433 26ZM210 350Q153 350 121 386T88 476Q88 519 101 556T137 620T189 662T248 677Q276 677 298 667T337 640T361 600T370 550Q370 507 357 471T321 407T270 365T210 350ZM212 388Q233 388 253 400T290 433T315 484T325 547Q325 591 304 615T247 639Q225 639 205 627T168 594T143 543T133 480Q133 436 155 412T212 388Z"  />
<glyph unicode="&amp;" horiz-adv-x="510" d="M355 0Q347 14 338 29T320 62Q286 28 248 8T165 -12Q134 -12 107 -3T61 24T30 68T18 128Q18 176 32 213T70 278T124 329T187 371Q171 426 171 481Q171 520 183 555T217 618T265 661T323 677Q368 677 398 652T428 573Q428 531 412 499T371 443T313 398T246 357Q254 332 265 307T287 256Q300 224 311 198T334 149Q364 190 388 232T426 304L467 282Q444 236 417 190T357 103Q370 80 385 55T418 0H355ZM171 33Q204 33 236 53T298 105Q281 138 267 168T243 221Q230 251 220 277T200 328Q174 311 152 292T112 250T85 198T75 133Q75 84 103 59T171 33ZM224 476Q224 457 226 438T234 399Q263 415 289 432T335 470T366 515T378 572Q378 607 361 620T321 634Q304 634 287 622T255 588T233 537T224 476Z"  />
<glyph unicode="&apos;" horiz-adv-x="187" d="M118 429Q125 484 130 528Q135 566 138 598T143 634Q145 653 156 665T185 677Q198 677 207 668T216 645Q216 640 214 634T211 625Q211 624 208 616T201 593T190 562T178 526Q164 483 146 429H118Z"  />
<glyph unicode="(" horiz-adv-x="208" d="M61 -199Q43 -146 33 -86T22 41Q22 219 83 380T255 685L284 664Q238 593 200 516T133 355T90 186T74 11Q74 -8 75 -32T80 -83T87 -135T96 -184L61 -199Z"  />
<glyph unicode=")" horiz-adv-x="208" d="M146 685Q164 632 174 572T185 445Q185 267 124 106T-49 -199L-77 -178Q-31 -108 7 -30T74 131T117 300T133 475Q133 494 131 518T126 569T119 621T111 670L146 685Z"  />
<glyph unicode="*" horiz-adv-x="315" d="M172 400L205 518L92 467L81 500L197 541L106 604L131 634L214 561L234 677H272L240 558L352 610L363 577L248 536L339 473L313 443L230 516L210 400H172Z"  />
<glyph unicode="+" horiz-adv-x="436" d="M256 317L214 129H170L212 317H45L54 357H221L261 539H305L265 357H432L423 317H256Z"  />
<glyph unicode="&#x2c;" horiz-adv-x="218" d="M107 29Q107 8 99 -13T76 -54T44 -90T6 -116L-18 -90Q10 -76 31 -53T60 -6H53Q39 -6 29 4T19 30Q19 49 33 62T65 76Q83 76 95 64T107 29Z"  />
<glyph unicode="-" horiz-adv-x="266" d="M24 219L34 265H240L231 219H24Z"  />
<glyph unicode="." horiz-adv-x="218" d="M58 -10Q41 -10 30 1T19 30Q19 50 32 63T66 76Q83 76 94 65T106 37Q106 17 92 4T58 -10Z"  />
<glyph unicode="/" horiz-adv-x="235" d="M-59 -20L289 687H335L-14 -20H-59Z"  />
<glyph unicode="0" horiz-adv-x="502" d="M216 -12Q138 -12 96 43T54 202Q54 251 62 305T87 412T126 513T180 597T246 655T325 677Q403 677 444 622T486 464Q486 415 478 360T454 253T415 152T361 68T295 10T216 -12ZM220 39Q252 39 280 60T331 116T373 196T404 289T423 384T430 471Q430 540 405 583T321 626Q289 626 261 605T209 549T168 469T136 376T117 281T110 195Q110 125 135 82T220 39Z"  />
<glyph unicode="1" horiz-adv-x="288" d="M103 0L233 592L105 479L78 516L255 667H305L158 0H103Z"  />
<glyph unicode="2" horiz-adv-x="477" d="M2 0L15 58Q110 148 183 216T307 340T384 439T410 527Q410 574 379 600T299 627Q255 627 221 609T159 555L125 591Q158 630 203 653T301 677Q335 677 365 668T419 641T456 596T470 532Q470 482 444 432T368 325T248 201T89 50H366L355 0H2Z"  />
<glyph unicode="3" horiz-adv-x="457" d="M191 -12Q157 -12 127 -3T71 23T28 66T1 124L48 150Q64 96 102 68T191 39Q225 39 252 53T298 92T327 149T337 215Q337 266 304 292T219 318Q204 318 194 318T176 317L189 370Q192 370 200 370T218 369T238 369T255 369Q286 369 312 381T357 414T388 463T399 525Q399 572 368 599T282 626Q244 626 209 607T145 553L113 587Q143 626 188 651T287 677Q324 677 355 668T408 640T444 594T457 531Q457 494 445 462T410 404T360 361T299 339Q342 326 367 291T393 208Q393 166 379 127T338 56T274 7T191 -12Z"  />
<glyph unicode="4" horiz-adv-x="440" d="M231 0L271 183H10L22 237L359 667H433L337 233H413L402 183H326L286 0H231ZM363 600L75 233H281L363 600Z"  />
<glyph unicode="5" horiz-adv-x="477" d="M207 -12Q132 -12 90 23T26 122L74 148Q103 39 210 39Q241 39 269 57T320 104T354 172T367 251Q367 306 336 336T254 366Q220 366 192 352T134 312L96 334L170 667H485L474 617H215L159 366Q180 388 209 401T277 414Q308 414 335 404T382 373T413 323T425 255Q425 204 409 156T363 71T294 11T207 -12Z"  />
<glyph unicode="6" horiz-adv-x="478" d="M213 -12Q171 -12 141 2T90 43T61 107T51 189Q51 225 57 275T78 380T115 487T169 583T241 651T333 677Q388 677 428 649T485 571L442 539Q431 580 403 603T330 626Q286 626 253 599T194 530T152 437T124 336Q122 328 122 325T120 317Q132 334 148 350T186 380T230 402T280 411Q345 411 387 373T429 260Q429 213 414 165T371 77T302 13T213 -12ZM217 39Q253 39 281 60T330 113T361 184T372 255Q372 303 344 333T262 363Q216 363 178 332T110 257Q108 243 106 220T104 179Q104 116 132 78T217 39Z"  />
<glyph unicode="7" horiz-adv-x="404" d="M45 0L393 617H110L121 667H469L460 629L108 0H45Z"  />
<glyph unicode="8" horiz-adv-x="471" d="M207 -12Q168 -12 135 -3T78 24T41 69T27 135Q27 209 75 266T208 350Q191 359 174 373T144 405T122 444T114 490Q114 530 130 564T173 624T234 663T307 677Q340 677 370 668T423 641T461 596T475 533Q475 492 461 460T424 404T371 364T307 339Q325 328 342 313T374 278T397 235T406 185Q406 142 390 106T347 44T284 3T207 -12ZM262 366Q291 371 319 383T368 416T403 464T416 528Q416 572 385 599T303 626Q277 626 253 616T211 586T182 541T171 483Q171 462 179 444T201 410T231 384T262 366ZM206 39Q233 39 258 50T304 81T336 129T349 191Q349 218 339 240T315 278T284 305T253 321Q220 315 190 300T136 263T100 210T86 145Q86 118 95 98T121 65T160 46T206 39Z"  />
<glyph unicode="9" horiz-adv-x="478" d="M304 678Q346 678 376 664T427 623T456 559T466 477Q466 441 460 391T439 286T402 179T348 83T276 15T184 -11Q129 -11 89 17T32 95L75 127Q86 86 114 63T187 40Q231 40 264 67T323 136T365 229T393 330Q395 338 395 341T397 349Q385 332 368 316T331 286T286 264T237 255Q172 255 130 293T88 406Q88 453 103 501T146 589T214 653T304 678ZM300 627Q264 627 236 606T187 553T156 482T145 411Q145 363 173 333T255 303Q301 303 339 334T407 409Q409 423 411 446T413 487Q413 550 385 588T300 627Z"  />
<glyph unicode=":" horiz-adv-x="217" d="M58 -10Q41 -10 30 1T19 30Q19 50 32 63T66 76Q83 76 94 65T106 37Q106 17 92 4T58 -10ZM150 404Q133 404 122 415T110 444Q110 464 124 477T158 490Q175 490 186 479T197 450Q197 431 184 418T150 404Z"  />
<glyph unicode=";" horiz-adv-x="218" d="M107 29Q107 8 99 -13T76 -54T44 -90T6 -116L-18 -90Q10 -76 31 -53T60 -6H53Q39 -6 29 4T19 30Q19 49 33 62T65 76Q83 76 95 64T107 29ZM150 404Q133 404 122 415T110 444Q110 464 124 477T158 490Q175 490 186 479T197 450Q197 431 184 418T150 404Z"  />
<glyph unicode="&lt;" horiz-adv-x="436" d="M44 316L53 353L473 543L461 492L100 332L390 173L380 127L44 316Z"  />
<glyph unicode="=" horiz-adv-x="436" d="M66 412L75 452H453L444 412H66ZM22 216L31 256H410L400 216H22Z"  />
<glyph unicode="&gt;" horiz-adv-x="436" d="M2 127L14 177L377 336L85 497L95 543L431 353L423 316L2 127Z"  />
<glyph unicode="?" horiz-adv-x="386" d="M162 176Q152 192 148 209T143 243Q143 279 159 305T199 352T251 391T304 431T344 477T360 537Q360 575 332 601T253 628Q218 628 189 616T134 579L111 618Q146 650 182 663T261 677Q297 677 326 667T376 639T408 597T419 546Q419 504 403 474T361 419T307 376T252 337T211 296T194 246Q194 236 197 223T208 199L162 176ZM139 -10Q122 -10 111 1T100 30Q100 50 113 63T147 76Q164 76 175 65T187 37Q187 17 173 4T139 -10Z"  />
<glyph unicode="@" horiz-adv-x="684" d="M326 -70Q267 -70 217 -48T131 13T75 108T55 230Q55 311 84 385T163 515T278 604T415 638Q472 638 518 617T598 559T650 469T669 354Q669 292 656 243T622 158T573 104T518 85Q481 85 461 108T439 163L438 169Q416 136 382 111T303 85Q278 85 256 93T218 119T192 163T182 226Q182 278 198 327T243 415T310 476T392 500Q432 500 457 477T492 421L505 482H552L492 197Q490 187 490 173Q490 149 501 137T530 125Q543 125 561 138T596 179T625 250T637 355Q637 412 621 458T575 538T504 588T413 606Q347 606 288 574T185 490T114 370T88 231Q88 171 106 122T156 36T232 -19T330 -39Q378 -39 416 -24T490 18L506 -7Q465 -37 420 -53T326 -70ZM314 125Q337 125 356 133T393 156T423 186T448 220L482 380Q479 393 472 407T455 432T430 451T397 459Q361 459 331 438T279 383T245 309T233 229Q233 182 253 154T314 125Z"  />
<glyph unicode="A" horiz-adv-x="493" d="M369 0L357 165H105L21 0H-42L306 667H373L427 0H369ZM328 602L129 215H355L328 602Z"  />
<glyph unicode="B" horiz-adv-x="498" d="M21 0L168 667H345Q377 667 403 657T449 629T479 584T490 527Q490 492 480 460T452 403T408 360T352 337Q371 332 385 319T410 289T426 251T432 211Q432 172 420 134T382 67T320 19T233 0H21ZM301 367Q336 367 360 382T400 419T423 469T430 521Q430 566 403 591T332 617H213L158 367H301ZM233 50Q266 50 292 64T337 101T364 153T374 213Q374 262 347 289T271 317H146L87 50H233Z"  />
<glyph unicode="C" horiz-adv-x="523" d="M265 -12Q218 -12 180 3T114 49T71 123T55 223Q55 299 77 379T141 526T238 635T363 678Q435 678 482 640T553 537L500 520Q480 576 444 601T359 627Q308 627 263 589T185 491T133 360T114 222Q114 134 155 87T269 39Q344 39 413 120L455 92Q372 -12 265 -12Z"  />
<glyph unicode="D" horiz-adv-x="550" d="M21 0L168 667H326Q366 667 402 651T465 605T509 531T526 429Q526 391 518 345T493 251T448 158T382 78T295 22T183 0H21ZM87 50H192Q238 50 276 68T345 117T399 186T437 267T460 350T468 427Q468 472 456 507T424 567T376 604T316 617H213L87 50Z"  />
<glyph unicode="E" horiz-adv-x="453" d="M21 0L168 667H494L484 617H213L158 367H421L410 317H146L87 50H358L347 0H21Z"  />
<glyph unicode="F" horiz-adv-x="441" d="M21 0L168 667H494L484 617H213L158 367H421L410 317H146L77 0H21Z"  />
<glyph unicode="G" horiz-adv-x="553" d="M254 -12Q210 -12 174 3T111 49T70 123T55 223Q55 272 65 325T94 428T142 524T205 603T283 658T375 678Q408 678 436 668T486 639T524 595T551 542L501 523Q484 572 449 599T366 627Q313 627 268 589T188 491T134 360T114 222Q114 136 153 88T263 39Q305 39 339 58T401 111T447 189T480 281H272L283 331H548Q514 169 443 79T254 -12Z"  />
<glyph unicode="H" horiz-adv-x="560" d="M375 0L445 318H147L77 0H21L168 667H224L158 368H457L522 667H578L431 0H375Z"  />
<glyph unicode="I" horiz-adv-x="206" d="M21 0L168 667H224L77 0H21Z"  />
<glyph unicode="J" horiz-adv-x="390" d="M114 -12Q68 -12 31 6T-27 59L7 98Q24 69 51 54T111 39Q165 39 196 71T241 163L352 667H408L297 162Q277 72 232 30T114 -12Z"  />
<glyph unicode="K" horiz-adv-x="491" d="M354 0L207 312L126 224L77 0H21L168 667H224L145 311L473 667H545L247 349L418 0H354Z"  />
<glyph unicode="L" horiz-adv-x="402" d="M14 0L161 667H217L80 50H330L319 0H14Z"  />
<glyph unicode="M" horiz-adv-x="662" d="M477 0L605 580L288 0H266L205 580L77 0H21L168 667H247L304 133L597 667H680L533 0H477Z"  />
<glyph unicode="N" horiz-adv-x="558" d="M375 0L200 555L77 0H21L168 667H224L399 120L520 667H576L429 0H375Z"  />
<glyph unicode="O" horiz-adv-x="590" d="M265 -12Q217 -12 179 4T113 52T70 126T55 223Q55 295 76 375T138 522T235 634T363 678Q411 678 449 661T516 614T559 540T574 443Q574 371 553 291T491 144T393 32T265 -12ZM269 39Q321 39 366 77T444 174T495 304T514 443Q514 532 471 579T358 627Q306 627 262 589T184 492T133 361T114 222Q114 134 157 87T269 39Z"  />
<glyph unicode="P" horiz-adv-x="468" d="M21 0L168 667H341Q373 667 399 655T445 622T476 573T487 511Q487 470 474 429T434 354T365 299T265 278H138L77 0H21ZM271 328Q310 328 339 343T388 384T417 442T427 508Q427 558 399 587T329 617H213L149 328H273H271Z"  />
<glyph unicode="Q" horiz-adv-x="590" d="M265 -12Q217 -12 179 4T113 52T70 126T55 223Q55 295 76 375T138 522T235 634T363 678Q411 678 449 661T516 614T559 540T574 443Q574 391 563 335T530 225T478 124T408 44L433 -13L387 -31L366 15Q343 2 318 -5T265 -12ZM269 39Q308 39 346 63L287 199L332 217L385 95Q414 124 438 164T479 251T505 347T514 443Q514 532 471 579T358 627Q306 627 262 589T184 492T133 361T114 222Q114 134 157 87T269 39Z"  />
<glyph unicode="R" horiz-adv-x="491" d="M327 0L249 278H138L77 0H21L168 667H335Q366 667 393 656T442 625T475 576T488 512Q488 467 475 427T436 357T377 308T303 283L388 0H327ZM272 328Q311 328 340 343T388 384T418 442T428 509Q428 560 399 588T329 617H213L149 328H272Z"  />
<glyph unicode="S" horiz-adv-x="459" d="M197 -12Q134 -12 82 14T5 79L45 120Q69 82 109 61T199 39Q232 39 258 50T303 82T332 129T342 186Q342 219 325 243T281 288T225 328T168 371T125 424T107 493Q107 532 122 565T165 624T227 663T301 678Q355 678 401 657T472 600L434 560Q411 594 375 610T299 627Q270 627 246 617T205 588T177 547T167 499Q167 469 184 447T228 404T284 363T340 318T383 264T401 192Q401 151 387 115T347 50T282 5T197 -12Z"  />
<glyph unicode="T" horiz-adv-x="435" d="M135 0L272 617H109L120 667H502L491 617H327L191 0H135Z"  />
<glyph unicode="U" horiz-adv-x="552" d="M249 -12Q164 -12 114 34T63 161Q63 190 68 210L168 667H224L123 209Q121 204 120 192T118 167Q118 107 153 73T251 38Q320 38 357 81T413 209L514 667H570L469 210Q445 102 395 45T249 -12Z"  />
<glyph unicode="V" horiz-adv-x="493" d="M159 0L105 667H163L205 69L511 667H574L226 0H159Z"  />
<glyph unicode="W" horiz-adv-x="694" d="M411 0L417 561L174 0H113V667H172L164 90L414 667H464L459 90L706 667H767L473 0H411Z"  />
<glyph unicode="X" horiz-adv-x="493" d="M365 0L259 292L28 0H-42L234 344L116 667H178L276 390L491 667H562L300 338L426 0H365Z"  />
<glyph unicode="Y" horiz-adv-x="483" d="M160 0L223 286L101 667H161L259 342L502 667H568L279 286L216 0H160Z"  />
<glyph unicode="Z" horiz-adv-x="453" d="M-12 0L-1 49L417 617H125L135 667H497L487 619L67 50H368L357 0H-12Z"  />
<glyph unicode="[" horiz-adv-x="200" d="M-61 -190L132 678H279L269 636H165L-9 -148H95L86 -190H-61Z"  />
<glyph unicode="\" horiz-adv-x="235" d="M93 687H137L177 -20H133L93 687Z"  />
<glyph unicode="]" horiz-adv-x="200" d="M-79 -190L-69 -148H34L207 636H104L113 678H260L67 -190H-79Z"  />
<glyph unicode="^" horiz-adv-x="377" d="M334 333L275 624L86 333H38L262 667H302L377 333H334Z"  />
<glyph unicode="_" horiz-adv-x="422" d="M-75 -82L-65 -40H362L352 -82H-75Z"  />
<glyph unicode="`" horiz-adv-x="174" d="M204 556L101 700H159L243 556H204Z"  />
<glyph unicode="a" horiz-adv-x="440" d="M270 0L281 51Q256 20 226 4T158 -12Q132 -12 108 -4T66 19T36 59T25 116Q25 156 37 191T72 253T124 294T190 309Q232 309 267 291T322 237L344 332Q346 341 347 351T348 371Q348 408 321 429T246 451Q212 451 181 437T124 398L105 436Q139 465 176 480T254 495Q285 495 312 488T358 467T389 432T401 381Q401 358 395 333L321 0H270ZM175 28Q242 28 290 92L315 198Q301 233 270 251T200 269Q172 269 150 256T112 222T88 175T79 121Q79 73 106 51T175 28Z"  />
<glyph unicode="b" horiz-adv-x="470" d="M214 -12Q170 -12 136 11T84 77L67 0H17L164 667H214L159 414Q185 453 219 474T292 495Q356 495 394 451T433 327Q433 292 427 254T407 177T375 105T332 45T278 4T214 -12ZM209 33Q249 33 280 62T334 135T367 229T379 321Q379 384 352 417T276 450Q237 450 202 422T146 358L94 123Q105 86 135 60T209 33Z"  />
<glyph unicode="c" horiz-adv-x="400" d="M205 -12Q168 -12 138 0T85 35T50 93T37 175Q37 229 53 285T101 388T175 465T273 495Q320 495 352 477T405 426L370 394Q354 423 329 436T274 450Q230 450 196 423T138 354T103 265T91 173Q91 101 124 67T211 33Q241 33 265 46T309 81L332 45Q305 17 276 3T205 -12Z"  />
<glyph unicode="d" horiz-adv-x="470" d="M255 495Q299 495 333 472T385 406L442 667H493L345 0H294L310 69Q284 30 250 9T176 -12Q112 -12 74 32T36 156Q36 208 50 268T93 378T162 461T255 495ZM260 450Q220 450 189 421T135 348T102 254T90 162Q90 99 117 66T193 33Q212 33 231 40T266 61T297 90T322 125L374 360Q363 397 333 423T260 450Z"  />
<glyph unicode="e" horiz-adv-x="464" d="M216 -12Q131 -12 84 37T37 174Q37 221 52 277T97 381T170 462T269 495Q343 495 385 449T428 319Q428 295 424 270T415 225H94Q89 197 89 172Q89 142 97 117T121 72T162 42T220 31Q249 31 280 46T337 87L360 53Q331 23 294 6T216 -12ZM373 265Q379 290 379 319Q379 347 372 371T351 413T315 441T265 452Q233 452 206 435T157 392T121 332T101 265H369H373Z"  />
<glyph unicode="f" horiz-adv-x="239" d="M32 0L129 438H65L75 483H139L154 551Q168 615 200 646T281 677Q298 677 312 674T341 661L319 620Q311 627 301 629T282 632Q250 632 232 611T204 551L190 483H273L263 438H180L83 0H32Z"  />
<glyph unicode="g" horiz-adv-x="470" d="M151 -196Q100 -196 58 -181T-13 -128L21 -89Q41 -118 74 -134T152 -151Q201 -151 237 -119T291 -13L311 73Q285 35 251 14T174 -8Q145 -8 120 2T76 33T47 85T36 161Q36 212 50 270T91 379T160 462T254 495Q293 495 330 471T385 406L402 483H452L341 -13Q330 -63 312 -98T269 -155T215 -186T151 -196ZM192 37Q229 37 264 64T322 126L374 359Q362 397 330 423T257 450Q218 450 187 421T135 349T102 257T90 166Q90 100 117 69T192 37Z"  />
<glyph unicode="h" horiz-adv-x="450" d="M275 0L353 355Q355 361 356 371T358 386Q358 420 338 435T284 450Q265 450 246 443T209 423T176 394T147 362L67 0H17L164 667H214L159 413Q187 446 224 470T304 495Q353 495 382 471T411 401Q411 395 410 384T406 364L326 0H275Z"  />
<glyph unicode="i" horiz-adv-x="192" d="M170 559Q154 559 144 569T134 594Q134 614 148 625T178 637Q193 637 203 627T214 603Q214 583 200 571T170 559ZM17 0L124 483H174L67 0H17Z"  />
<glyph unicode="j" horiz-adv-x="192" d="M-66 -196Q-94 -196 -115 -187T-150 -157L-118 -122Q-111 -135 -99 -143T-69 -151Q-45 -151 -28 -134T0 -72L124 483H174L51 -72Q36 -138 9 -167T-66 -196ZM170 559Q154 559 144 569T134 594Q134 614 148 625T178 637Q193 637 203 627T214 603Q214 583 200 571T170 559Z"  />
<glyph unicode="k" horiz-adv-x="425" d="M294 0L196 233L97 136L67 0H17L164 667H214L113 207L396 483H459L236 265L351 0H294Z"  />
<glyph unicode="l" horiz-adv-x="226" d="M115 -12Q77 -12 55 5T32 57Q32 74 36 90L164 667H214L88 96Q85 82 85 70Q85 33 125 33Q137 33 148 38T167 51L179 12Q167 1 151 -5T115 -12Z"  />
<glyph unicode="m" horiz-adv-x="670" d="M494 0L574 359Q575 363 576 371T578 386Q578 418 560 434T513 450Q496 450 479 443T445 423T413 395T386 363L306 0H255L335 359Q337 368 338 375T339 390Q339 418 323 434T274 450Q257 450 240 443T206 423T174 395T147 363L67 0H17L124 483H174L159 413Q169 427 183 441T215 468T252 487T293 495Q317 495 335 488T366 469T385 443T391 414V406Q418 442 454 468T533 495Q575 495 603 471T631 402Q631 393 629 383T625 364L545 0H494Z"  />
<glyph unicode="n" horiz-adv-x="450" d="M275 0L353 355Q355 362 356 370T358 386Q358 420 338 435T284 450Q265 450 246 443T209 423T176 395T147 363L67 0H17L124 483H174L159 413Q187 446 224 470T304 495Q352 495 381 472T411 401Q411 395 410 383T406 364L326 0H275Z"  />
<glyph unicode="o" horiz-adv-x="470" d="M200 -12Q125 -12 81 34T37 169Q37 223 53 281T99 386T172 464T269 495Q343 495 387 449T431 314Q431 260 415 202T369 97T296 19T200 -12ZM202 33Q241 33 273 61T329 131T365 222T378 314Q378 382 348 416T266 450Q227 450 195 422T139 352T103 261T90 169Q90 101 120 67T202 33Z"  />
<glyph unicode="p" horiz-adv-x="468" d="M214 -12Q170 -12 136 11T84 77L26 -184H-24L124 483H174L159 414Q185 453 219 474T292 495Q356 495 394 451T433 327Q433 292 427 254T407 177T375 105T332 45T278 4T214 -12ZM209 33Q249 33 280 62T334 135T367 229T379 321Q379 384 352 417T276 450Q237 450 202 422T146 358L94 123Q105 86 135 60T209 33Z"  />
<glyph unicode="q" horiz-adv-x="468" d="M255 495Q299 495 333 472T385 406L401 483H452L304 -184H253L310 69Q284 30 250 9T176 -12Q112 -12 74 32T36 156Q36 208 50 268T93 378T162 461T255 495ZM260 450Q220 450 189 421T135 348T102 254T90 162Q90 99 117 66T193 33Q212 33 231 40T266 61T297 90T322 125L374 360Q363 397 333 423T260 450Z"  />
<glyph unicode="r" horiz-adv-x="278" d="M17 0L124 483H174L158 409Q188 449 223 471T315 493L303 438Q294 441 275 441Q236 441 202 415T145 352L67 0H17Z"  />
<glyph unicode="s" horiz-adv-x="377" d="M152 -12Q99 -12 60 6T-3 63L32 96Q48 69 79 50T153 31Q177 31 197 39T231 60T253 92T261 129Q261 154 247 172T212 205T165 234T119 265T83 304T69 356Q69 384 79 409T109 454T157 484T222 495Q270 495 307 476T362 427L329 394Q316 420 285 436T219 452Q174 452 147 428T120 366Q120 343 134 326T170 295T216 266T263 234T298 194T313 140Q313 110 302 83T270 34T219 1T152 -12Z"  />
<glyph unicode="t" horiz-adv-x="248" d="M127 -12Q88 -12 66 5T44 60Q44 65 45 73T48 90L126 438H60L70 483H136L165 615H215L186 483H269L259 438H176L100 96Q97 84 97 71Q97 33 137 33Q149 33 160 38T179 51L191 12Q179 1 163 -5T127 -12Z"  />
<glyph unicode="u" horiz-adv-x="450" d="M174 483L96 128Q94 121 93 113T91 97Q91 63 111 48T166 33Q204 33 239 59T301 118L382 483H433L326 0H275L290 70Q262 37 226 13T146 -12Q97 -12 68 11T38 82Q38 88 39 100T43 119L123 483H174Z"  />
<glyph unicode="v" horiz-adv-x="392" d="M113 0L63 483H117L153 60L378 483H435L170 0H113Z"  />
<glyph unicode="w" horiz-adv-x="617" d="M366 0L345 413L143 0H93L70 483H122L134 72L335 483H383L402 72L597 483H653L416 0H366Z"  />
<glyph unicode="x" horiz-adv-x="393" d="M267 0L191 208L23 0H-37L166 246L78 483H133L203 285L361 483H421L227 246L323 0H267Z"  />
<glyph unicode="y" horiz-adv-x="450" d="M132 -196Q18 -196 -33 -128L2 -89Q22 -120 56 -135T132 -151Q189 -151 222 -115T272 -13L291 74Q261 41 226 17T146 -8Q100 -8 70 15T39 86Q39 93 40 102T44 123L124 483H174L96 133Q93 115 93 100Q93 66 114 52T167 38Q205 38 241 64T302 123L382 483H433L322 -13Q301 -107 253 -151T132 -196Z"  />
<glyph unicode="z" horiz-adv-x="379" d="M-7 0L1 42L308 438H90L100 483H382L373 442L65 45H288L279 0H-7Z"  />
<glyph unicode="{" horiz-adv-x="222" d="M70 -190Q37 -190 10 -167T-17 -104Q-17 -97 -16 -90T-13 -77L38 154Q40 164 40 172Q40 195 31 210T1 225L10 263Q39 263 55 284T78 334L129 567Q143 624 175 651T254 678H301L291 636H245Q218 636 200 619T173 567L119 327Q112 295 98 273T55 239Q69 232 76 218T84 186Q84 178 83 170T80 152L30 -78Q29 -83 28 -87T27 -97Q27 -120 40 -134T74 -148H117L108 -190H70Z"  />
<glyph unicode="|" horiz-adv-x="192" d="M95 -20V687H137V-20H95Z"  />
<glyph unicode="}" horiz-adv-x="222" d="M151 678Q184 678 211 655T238 591Q238 586 237 578T234 565L183 334Q181 324 181 315Q181 293 190 278T219 263L210 225Q181 225 165 204T143 154L91 -79Q78 -136 45 -163T-34 -190H-80L-70 -148H-24Q2 -148 21 -131T48 -79L101 161Q108 193 122 215T165 249Q151 256 144 270T136 302Q136 310 137 318T140 336L191 566Q192 571 192 575T193 585Q193 608 180 622T147 636H103L113 678H151Z"  />
<glyph unicode="~" horiz-adv-x="443" d="M508 663Q498 622 484 580T451 505T405 450T346 429Q316 429 301 443T279 480T271 527T266 574T254 610T226 625Q191 625 162 575T110 427L69 433Q78 474 92 515T125 590T170 644T229 665Q259 665 274 651T296 614T305 567T310 519T322 483T350 468Q385 468 414 518T466 667L508 663Z"  />
<glyph unicode="&#xA0;" horiz-adv-x="217" />
<glyph unicode="&#xA1;" horiz-adv-x="218" d="M143 310L47 -184H-19L104 310H143ZM158 493Q175 493 186 482T197 453Q197 433 184 420T150 407Q133 407 122 418T111 446Q111 466 124 479T158 493Z"  />
<glyph unicode="&#xA2;" horiz-adv-x="400" d="M205 -12Q202 -12 199 -12T192 -11L173 -100H129L150 -4Q99 10 68 55T37 175Q37 227 52 282T97 383T168 460T261 494L277 565H321L305 492Q339 487 363 470T405 426L370 394Q357 417 338 430T295 448L202 33H211Q241 33 265 46T309 81L332 45Q305 17 276 3T205 -12ZM91 173Q91 120 109 88T160 42L251 448Q212 440 182 411T132 343T102 258T91 173Z"  />
<glyph unicode="&#xA3;" horiz-adv-x="433" d="M38 309H144Q137 325 129 340T114 372T102 407T97 449Q97 494 113 535T158 607T223 658T303 677Q331 677 357 669T405 647T440 612T459 565L409 545Q402 581 375 605T304 629Q276 629 250 616T203 578T170 521T157 446Q157 424 162 406T174 372T189 341T203 309H314L305 268H211Q212 264 212 257Q212 227 202 198T175 145T138 100T99 68Q111 73 120 75T141 77Q162 77 179 71T211 58T242 44T276 38Q302 38 323 49T359 76L373 32Q353 12 327 0T270 -13Q241 -13 222 -6T185 9T151 24T108 31Q68 31 12 -7L-1 38Q30 53 59 75T110 125T145 184T158 245Q158 251 158 256T156 268H29L38 309Z"  />
<glyph unicode="&#xA4;" horiz-adv-x="506" d="M253 222Q310 222 341 262T372 365Q372 395 364 421T341 467T304 498T253 509Q224 509 202 498T165 468T141 422T133 365Q133 334 141 308T164 263T202 233T253 222ZM19 168L88 239Q50 294 50 365Q50 436 88 489L19 560L64 603L131 534Q155 552 185 563T253 574Q289 574 320 563T375 534L442 603L487 560L418 489Q455 435 455 365Q455 330 445 298T417 240L487 168L442 125L374 194Q325 157 253 157Q181 157 132 194L64 125L19 168Z"  />
<glyph unicode="&#xA5;" horiz-adv-x="483" d="M163 0L191 126H-6L4 166H200L226 286H30L39 326H213L104 667H164L262 342L505 667H571L312 326H480L471 286H282L256 166H444L435 126H247L219 0H163Z"  />
<glyph unicode="&#xA6;" horiz-adv-x="192" d="M95 -20V296H137V-20H95ZM95 371V687H137V371H95Z"  />
<glyph unicode="&#xA7;" horiz-adv-x="378" d="M351 318Q351 271 324 233T236 177Q268 156 282 130T296 73Q296 43 285 16T254 -33T205 -68T139 -81Q27 -81 -25 -10L11 22Q28 -7 60 -23T137 -40Q160 -40 179 -32T213 -9T236 24T244 66Q244 91 230 108T195 140T150 167T104 198T69 237T55 291Q55 315 63 337T89 378T131 408T188 424Q152 445 131 473T109 538Q109 566 120 591T150 635T197 665T258 677Q310 677 347 660T408 611L374 583Q354 612 324 624T260 637Q217 637 189 610T160 545Q160 520 174 503T209 471T255 443T301 413T337 373T351 318ZM300 308Q300 344 278 365T229 401Q195 397 172 387T133 362T112 332T105 299Q105 267 130 244T200 198Q255 215 277 244T300 308Z"  />
<glyph unicode="&#xA8;" horiz-adv-x="260" d="M329 605Q329 588 317 576T289 564Q275 564 266 573T256 597Q256 614 268 625T297 637Q311 637 320 628T329 605ZM161 605Q161 588 149 576T120 564Q106 564 97 573T88 597Q88 614 100 625T129 637Q143 637 152 628T161 605Z"  />
<glyph unicode="&#xA9;" horiz-adv-x="778" d="M754 334Q754 263 727 200T653 90T543 16T408 -11Q337 -11 274 16T165 90T91 200T64 334Q64 406 91 468T164 578T274 652T408 679Q480 679 543 652T653 578T727 469T754 334ZM726 334Q726 399 701 457T633 558T531 626T408 651Q343 651 286 626T185 558T117 457T92 334Q92 269 117 211T185 110T285 42T408 17Q473 17 531 42T632 110T701 211T726 334ZM522 172Q495 149 462 135T389 120Q344 120 308 134T248 174T210 234T197 307Q197 359 217 403T270 479T345 530T433 549Q539 549 588 469L561 450Q543 484 510 501T433 519Q396 519 360 503T295 459T248 392T230 307Q230 275 241 247T273 197T323 163T389 150Q421 150 452 163T505 197L522 172Z"  />
<glyph unicode="&#xAA;" horiz-adv-x="346" d="M241 614Q216 614 196 598T160 556T137 499T128 440Q128 397 146 375T197 353Q224 353 246 370T284 410L317 560Q310 583 289 598T241 614ZM377 640L307 326H265L276 373Q256 344 232 331T183 318Q142 318 114 347T85 438Q85 473 95 510T125 578T172 628T234 648Q263 648 288 634T325 593L335 640H377Z"  />
<glyph unicode="&#xAB;" horiz-adv-x="350" d="M114 63L29 243L194 420H248L80 239L162 63H114ZM228 63L143 243L308 420H362L194 239L276 63H228Z"  />
<glyph unicode="&#xAC;" horiz-adv-x="437" d="M400 216H358L401 412H66L75 452H453L400 216Z"  />
<glyph unicode="&#xAD;" horiz-adv-x="266" d="M24 219L34 265H240L231 219H24Z"  />
<glyph unicode="&#xAE;" horiz-adv-x="494" d="M508 465Q508 421 492 383T446 315T378 270T295 253Q251 253 213 269T146 315T101 382T84 465Q84 509 100 548T146 615T213 660T296 677Q340 677 379 661T446 616T491 548T508 465ZM481 465Q481 504 467 537T427 596T367 635T295 650Q257 650 224 636T165 596T126 538T111 465Q111 427 125 394T165 335T223 295T295 280Q333 280 367 294T426 334T466 393T481 465ZM330 343L288 439H240L219 343H189L242 586H333Q360 586 381 570T402 522Q402 504 395 489T377 463T351 446T322 440L366 343H330ZM370 518Q370 538 358 548T328 558H266L246 468H315Q338 468 354 482T370 518Z"  />
<glyph unicode="&#xAF;" horiz-adv-x="304" d="M77 591L85 628H388L380 591H77Z"  />
<glyph unicode="&#xB0;" horiz-adv-x="281" d="M326 561Q326 537 317 516T292 479T255 454T210 445Q186 445 165 454T129 479T104 516T95 561Q95 585 104 606T128 643T165 668T210 677Q234 677 255 668T292 643T317 606T326 561ZM288 561Q288 593 265 616T210 639Q178 639 156 616T133 561Q133 529 155 507T209 484Q225 484 239 490T264 506T281 531T288 561Z"  />
<glyph unicode="&#xB1;" horiz-adv-x="436" d="M256 320L215 132H171L213 320H46L55 360H222L262 542H305L266 360H433L424 320H256ZM-19 26L-11 66H367L359 26H-19Z"  />
<glyph unicode="&#xB2;" horiz-adv-x="319" d="M81 421L89 457Q150 508 197 547T276 617T324 676T340 729Q340 761 319 775T269 790Q214 790 175 742L151 770Q174 797 204 812T270 827Q291 827 311 822T348 804T375 774T385 731Q385 700 368 670T320 608T245 539T148 458H327L319 421H81Z"  />
<glyph unicode="&#xB3;" horiz-adv-x="319" d="M346 540Q346 519 338 497T313 456T273 426T217 414Q172 414 139 433T91 486L124 509Q137 482 160 467T216 451Q237 451 253 459T280 482T296 513T302 548Q302 577 280 593T226 609Q218 609 211 609T198 608L207 645Q215 644 228 644T250 644Q288 644 313 666T338 729Q338 757 317 773T264 790Q236 790 215 778T172 744L150 771Q172 796 202 811T267 827Q316 827 349 804T382 734Q382 692 356 661T284 623Q310 617 328 595T346 540Z"  />
<glyph unicode="&#xB4;" horiz-adv-x="174" d="M108 556H67L215 700H275L108 556Z"  />
<glyph unicode="&#xB5;" horiz-adv-x="450" d="M-24 -184L124 483H174L95 126Q84 73 101 53T157 32Q176 32 196 39T235 57T271 84T300 116L382 483H433L326 0H275L289 68Q259 35 218 12T132 -12Q89 -12 67 3L26 -184H-24Z"  />
<glyph unicode="&#xB6;" horiz-adv-x="449" d="M253 -100L415 630H321L159 -100H122L216 323Q188 323 163 334T120 367T90 416T79 479Q79 514 93 548T134 608T195 651T273 667H460L290 -100H253Z"  />
<glyph unicode="&#xB7;" horiz-adv-x="218" d="M105 202Q88 202 77 213T66 241Q66 261 79 274T113 287Q130 287 141 276T152 248Q152 228 139 215T105 202Z"  />
<glyph unicode="&#xB8;" horiz-adv-x="178" d="M1 -189Q-28 -189 -50 -179T-89 -152L-66 -123Q-39 -156 4 -156Q33 -156 48 -141T63 -103Q63 -89 55 -81T30 -72Q11 -72 -3 -89L-27 -73L23 11H60L19 -57Q31 -46 48 -46Q71 -46 85 -61T100 -102Q100 -139 72 -164T1 -189Z"  />
<glyph unicode="&#xB9;" horiz-adv-x="208" d="M145 421L219 759L145 695L123 724L238 821H277L189 421H145Z"  />
<glyph unicode="&#xBA;" horiz-adv-x="343" d="M203 318Q147 318 117 352T87 443Q87 476 98 512T129 578T179 628T245 648Q301 648 331 614T362 523Q362 490 351 454T320 388T270 338T203 318ZM204 354Q231 354 252 371T289 414T311 469T319 524Q319 565 299 588T244 611Q216 611 195 594T160 552T138 497T130 442Q130 401 149 378T204 354Z"  />
<glyph unicode="&#xBB;" horiz-adv-x="350" d="M123 420L208 240L43 63H-11L158 245L75 420H123ZM237 420L322 240L157 63H103L271 245L189 420H237Z"  />
<glyph unicode="&#xBC;" horiz-adv-x="644" d="M93 0H52L548 667H589L93 0ZM536 107L512 0H469L492 107H325L333 143L544 400H600L543 144H592L584 107H536ZM546 350L375 144H500L546 350ZM111 267L185 605L111 541L89 570L204 667H243L155 267H111Z"  />
<glyph unicode="&#xBD;" horiz-adv-x="679" d="M93 0H52L548 667H589L93 0ZM348 0L356 36Q417 87 464 126T543 196T591 255T607 308Q607 340 586 354T536 369Q481 369 442 321L418 349Q441 376 471 391T537 406Q558 406 578 401T615 383T642 353T652 310Q652 279 635 249T587 187T512 118T415 37H594L586 0H348ZM111 267L185 605L111 541L89 570L204 667H243L155 267H111Z"  />
<glyph unicode="&#xBE;" horiz-adv-x="721" d="M170 0H129L625 667H666L170 0ZM613 107L589 0H546L569 107H402L410 143L621 400H677L620 144H669L661 107H613ZM623 350L452 144H577L623 350ZM312 386Q312 365 304 343T279 302T239 272T183 260Q138 260 105 279T57 332L90 355Q103 328 126 313T182 297Q203 297 219 305T246 328T262 359T268 394Q268 423 246 439T192 455Q184 455 177 455T164 454L173 491Q181 490 194 490T216 490Q254 490 279 512T304 575Q304 603 283 619T230 636Q202 636 181 624T138 590L116 617Q138 642 168 657T233 673Q282 673 315 650T348 580Q348 538 322 507T250 469Q276 463 294 441T312 386Z"  />
<glyph unicode="&#xBF;" horiz-adv-x="328" d="M222 307Q232 291 236 274T241 240Q241 204 225 178T185 131T133 92T81 52T41 6T25 -54Q25 -92 52 -118T131 -145Q167 -145 196 -133T251 -96L273 -135Q238 -167 202 -181T124 -195Q88 -195 59 -185T9 -156T-23 -114T-34 -63Q-34 -22 -18 9T24 64T78 107T132 146T173 187T190 237Q190 247 187 260T176 284L222 307ZM245 492Q262 492 273 481T284 453Q284 433 271 420T237 407Q220 407 209 418T198 446Q198 466 211 479T245 492Z"  />
<glyph unicode="&#xC0;" horiz-adv-x="493" d="M367 728L264 872H322L406 728H367ZM369 0L357 165H105L21 0H-42L306 667H373L427 0H369ZM328 602L129 215H355L328 602Z"  />
<glyph unicode="&#xC1;" horiz-adv-x="493" d="M341 728H300L448 872H508L341 728ZM369 0L357 165H105L21 0H-42L306 667H373L427 0H369ZM328 602L129 215H355L328 602Z"  />
<glyph unicode="&#xC2;" horiz-adv-x="493" d="M430 728L379 840L283 728H245L359 872H411L464 728H430ZM369 0L357 165H105L21 0H-42L306 667H373L427 0H369ZM328 602L129 215H355L328 602Z"  />
<glyph unicode="&#xC3;" horiz-adv-x="493" d="M406 726Q380 726 370 742T354 777T341 813T315 829Q296 829 281 806T254 732H220Q226 760 235 784T256 827T285 855T322 866Q348 866 358 850T374 815T387 779T412 763Q432 763 447 786T475 860H509Q503 832 494 808T472 765T443 737T406 726ZM369 0L357 165H105L21 0H-42L306 667H373L427 0H369ZM328 602L129 215H355L328 602Z"  />
<glyph unicode="&#xC4;" horiz-adv-x="493" d="M483 773Q483 756 471 744T443 732Q429 732 420 741T410 765Q410 782 422 793T451 805Q465 805 474 796T483 773ZM315 773Q315 756 303 744T274 732Q260 732 251 741T242 765Q242 782 254 793T283 805Q297 805 306 796T315 773ZM369 0L357 165H105L21 0H-42L306 667H373L427 0H369ZM328 602L129 215H355L328 602Z"  />
<glyph unicode="&#xC5;" horiz-adv-x="493" d="M356 692Q321 692 299 714T277 772Q277 791 285 809T306 840T336 861T374 869Q409 869 431 847T453 789Q453 769 445 752T424 721T393 700T356 692ZM358 723Q384 723 403 741T422 786Q422 809 409 823T372 838Q346 838 327 820T308 775Q308 752 321 738T358 723ZM369 0L357 165H105L21 0H-42L306 667H373L427 0H369ZM328 602L129 215H355L328 602Z"  />
<glyph unicode="&#xC6;" horiz-adv-x="736" d="M302 0L338 165H138L25 0H-38L427 667H775L765 617H494L439 367H702L691 317H427L368 50H639L628 0H302ZM434 596L170 215H349L434 596Z"  />
<glyph unicode="&#xC7;" horiz-adv-x="523" d="M258 -12L231 -57Q243 -46 260 -46Q283 -46 297 -61T312 -102Q312 -139 284 -164T213 -189Q184 -189 162 -179T123 -152L146 -123Q173 -156 216 -156Q245 -156 260 -141T275 -103Q275 -89 267 -81T242 -72Q223 -72 209 -89L185 -73L223 -8Q147 4 101 63T55 223Q55 299 77 379T141 526T238 635T363 678Q435 678 482 640T553 537L500 520Q480 576 444 601T359 627Q308 627 263 589T185 491T133 360T114 222Q114 134 155 87T269 39Q344 39 413 120L455 92Q372 -12 265 -12H258Z"  />
<glyph unicode="&#xC8;" horiz-adv-x="453" d="M360 728L257 872H315L399 728H360ZM21 0L168 667H494L484 617H213L158 367H421L410 317H146L87 50H358L347 0H21Z"  />
<glyph unicode="&#xC9;" horiz-adv-x="453" d="M333 728H292L440 872H500L333 728ZM21 0L168 667H494L484 617H213L158 367H421L410 317H146L87 50H358L347 0H21Z"  />
<glyph unicode="&#xCA;" horiz-adv-x="453" d="M422 728L371 840L275 728H237L351 872H403L456 728H422ZM21 0L168 667H494L484 617H213L158 367H421L410 317H146L87 50H358L347 0H21Z"  />
<glyph unicode="&#xCB;" horiz-adv-x="453" d="M474 773Q474 756 462 744T434 732Q420 732 411 741T401 765Q401 782 413 793T442 805Q456 805 465 796T474 773ZM306 773Q306 756 294 744T265 732Q251 732 242 741T233 765Q233 782 245 793T274 805Q288 805 297 796T306 773ZM21 0L168 667H494L484 617H213L158 367H421L410 317H146L87 50H358L347 0H21Z"  />
<glyph unicode="&#xCC;" horiz-adv-x="206" d="M224 728L121 872H179L263 728H224ZM21 0L168 667H224L77 0H21Z"  />
<glyph unicode="&#xCD;" horiz-adv-x="206" d="M198 728H157L305 872H365L198 728ZM21 0L168 667H224L77 0H21Z"  />
<glyph unicode="&#xCE;" horiz-adv-x="206" d="M287 728L236 840L140 728H102L216 872H268L321 728H287ZM21 0L168 667H224L77 0H21Z"  />
<glyph unicode="&#xCF;" horiz-adv-x="206" d="M341 772Q341 755 329 743T301 731Q287 731 278 740T268 764Q268 781 280 792T309 804Q323 804 332 795T341 772ZM173 772Q173 755 161 743T132 731Q118 731 109 740T100 764Q100 781 112 792T141 804Q155 804 164 795T173 772ZM21 0L168 667H224L77 0H21Z"  />
<glyph unicode="&#xD0;" horiz-adv-x="574" d="M45 0L113 310H31L42 358H124L192 667H350Q390 667 426 651T489 605T533 531T550 429Q550 391 542 345T517 251T472 158T406 78T319 22T207 0H45ZM169 310L111 50H216Q262 50 300 68T369 117T423 186T461 267T484 350T492 427Q492 472 480 507T448 567T400 604T340 617H237L179 358H314L303 310H169Z"  />
<glyph unicode="&#xD1;" horiz-adv-x="558" d="M440 726Q414 726 404 742T388 777T375 813T349 829Q330 829 315 806T288 732H254Q260 760 269 784T290 827T319 855T356 866Q382 866 392 850T408 815T421 779T446 763Q466 763 481 786T509 860H543Q537 832 528 808T506 765T477 737T440 726ZM375 0L200 555L77 0H21L168 667H224L399 120L520 667H576L429 0H375Z"  />
<glyph unicode="&#xD2;" horiz-adv-x="590" d="M417 728L314 872H372L456 728H417ZM265 -12Q217 -12 179 4T113 52T70 126T55 223Q55 295 76 375T138 522T235 634T363 678Q411 678 449 661T516 614T559 540T574 443Q574 371 553 291T491 144T393 32T265 -12ZM269 39Q321 39 366 77T444 174T495 304T514 443Q514 532 471 579T358 627Q306 627 262 589T184 492T133 361T114 222Q114 134 157 87T269 39Z"  />
<glyph unicode="&#xD3;" horiz-adv-x="590" d="M390 728H349L497 872H557L390 728ZM265 -12Q217 -12 179 4T113 52T70 126T55 223Q55 295 76 375T138 522T235 634T363 678Q411 678 449 661T516 614T559 540T574 443Q574 371 553 291T491 144T393 32T265 -12ZM269 39Q321 39 366 77T444 174T495 304T514 443Q514 532 471 579T358 627Q306 627 262 589T184 492T133 361T114 222Q114 134 157 87T269 39Z"  />
<glyph unicode="&#xD4;" horiz-adv-x="590" d="M479 728L428 840L332 728H294L408 872H460L513 728H479ZM265 -12Q217 -12 179 4T113 52T70 126T55 223Q55 295 76 375T138 522T235 634T363 678Q411 678 449 661T516 614T559 540T574 443Q574 371 553 291T491 144T393 32T265 -12ZM269 39Q321 39 366 77T444 174T495 304T514 443Q514 532 471 579T358 627Q306 627 262 589T184 492T133 361T114 222Q114 134 157 87T269 39Z"  />
<glyph unicode="&#xD5;" horiz-adv-x="590" d="M459 726Q433 726 423 742T407 777T394 813T368 829Q349 829 334 806T307 732H273Q279 760 288 784T309 827T338 855T375 866Q401 866 411 850T427 815T440 779T465 763Q485 763 500 786T528 860H562Q556 832 547 808T525 765T496 737T459 726ZM265 -12Q217 -12 179 4T113 52T70 126T55 223Q55 295 76 375T138 522T235 634T363 678Q411 678 449 661T516 614T559 540T574 443Q574 371 553 291T491 144T393 32T265 -12ZM269 39Q321 39 366 77T444 174T495 304T514 443Q514 532 471 579T358 627Q306 627 262 589T184 492T133 361T114 222Q114 134 157 87T269 39Z"  />
<glyph unicode="&#xD6;" horiz-adv-x="590" d="M531 773Q531 756 519 744T491 732Q477 732 468 741T458 765Q458 782 470 793T499 805Q513 805 522 796T531 773ZM363 773Q363 756 351 744T322 732Q308 732 299 741T290 765Q290 782 302 793T331 805Q345 805 354 796T363 773ZM265 -12Q217 -12 179 4T113 52T70 126T55 223Q55 295 76 375T138 522T235 634T363 678Q411 678 449 661T516 614T559 540T574 443Q574 371 553 291T491 144T393 32T265 -12ZM269 39Q321 39 366 77T444 174T495 304T514 443Q514 532 471 579T358 627Q306 627 262 589T184 492T133 361T114 222Q114 134 157 87T269 39Z"  />
<glyph unicode="&#xD7;" horiz-adv-x="436" d="M234 305L73 173L48 205L210 337L109 466L141 492L241 363L402 495L427 463L266 331L367 202L335 176L234 305Z"  />
<glyph unicode="&#xD8;" horiz-adv-x="590" d="M265 -12Q178 -12 123 40L94 0H47L98 70Q55 130 55 223Q55 295 76 375T138 522T235 634T363 678Q448 678 504 625L534 667H581L529 596Q551 567 562 528T574 443Q574 371 553 291T491 144T393 32T265 -12ZM269 39Q321 39 366 77T444 174T495 304T514 443Q514 502 492 546L157 87Q199 39 269 39ZM114 222Q114 162 135 120L470 579Q429 627 358 627Q306 627 262 589T184 492T133 361T114 222Z"  />
<glyph unicode="&#xD9;" horiz-adv-x="552" d="M397 728L294 872H352L436 728H397ZM249 -12Q164 -12 114 34T63 161Q63 190 68 210L168 667H224L123 209Q121 204 120 192T118 167Q118 107 153 73T251 38Q320 38 357 81T413 209L514 667H570L469 210Q445 102 395 45T249 -12Z"  />
<glyph unicode="&#xDA;" horiz-adv-x="552" d="M369 728H328L476 872H536L369 728ZM249 -12Q164 -12 114 34T63 161Q63 190 68 210L168 667H224L123 209Q121 204 120 192T118 167Q118 107 153 73T251 38Q320 38 357 81T413 209L514 667H570L469 210Q445 102 395 45T249 -12Z"  />
<glyph unicode="&#xDB;" horiz-adv-x="552" d="M460 728L409 840L313 728H275L389 872H441L494 728H460ZM249 -12Q164 -12 114 34T63 161Q63 190 68 210L168 667H224L123 209Q121 204 120 192T118 167Q118 107 153 73T251 38Q320 38 357 81T413 209L514 667H570L469 210Q445 102 395 45T249 -12Z"  />
<glyph unicode="&#xDC;" horiz-adv-x="552" d="M512 773Q512 756 500 744T472 732Q458 732 449 741T439 765Q439 782 451 793T480 805Q494 805 503 796T512 773ZM344 773Q344 756 332 744T303 732Q289 732 280 741T271 765Q271 782 283 793T312 805Q326 805 335 796T344 773ZM249 -12Q164 -12 114 34T63 161Q63 190 68 210L168 667H224L123 209Q121 204 120 192T118 167Q118 107 153 73T251 38Q320 38 357 81T413 209L514 667H570L469 210Q445 102 395 45T249 -12Z"  />
<glyph unicode="&#xDD;" horiz-adv-x="483" d="M340 728H299L447 872H507L340 728ZM160 0L223 286L101 667H161L259 342L502 667H568L279 286L216 0H160Z"  />
<glyph unicode="&#xDE;" horiz-adv-x="468" d="M21 0L168 667H224L197 543H314Q345 543 371 531T417 498T448 449T459 387Q459 348 447 307T407 232T338 176T237 154H110L77 0H21ZM243 204Q283 204 312 219T360 260T389 318T399 384Q399 432 372 462T301 492H185L122 204H243Z"  />
<glyph unicode="&#xDF;" horiz-adv-x="501" d="M460 137Q460 110 450 83T419 35T370 1T302 -12Q248 -12 211 6T143 65L178 98Q197 71 226 51T301 31Q325 31 344 39T378 61T400 93T408 132Q408 155 394 171T360 201T315 228T271 257T236 294T222 346Q222 378 235 400T267 439T309 468T351 493T384 521T397 560Q397 594 370 613T306 632Q265 632 233 604T188 520L73 0H22L137 520Q153 591 197 634T309 677Q337 677 362 669T407 647T437 613T448 567Q448 535 435 514T403 478T361 450T319 425T286 396T273 354Q273 331 287 315T321 285T366 258T411 229T446 190T460 137Z"  />
<glyph unicode="&#xE0;" horiz-adv-x="440" d="M307 556L204 700H262L346 556H307ZM270 0L281 51Q256 20 226 4T158 -12Q132 -12 108 -4T66 19T36 59T25 116Q25 156 37 191T72 253T124 294T190 309Q232 309 267 291T322 237L344 332Q346 341 347 351T348 371Q348 408 321 429T246 451Q212 451 181 437T124 398L105 436Q139 465 176 480T254 495Q285 495 312 488T358 467T389 432T401 381Q401 358 395 333L321 0H270ZM175 28Q242 28 290 92L315 198Q301 233 270 251T200 269Q172 269 150 256T112 222T88 175T79 121Q79 73 106 51T175 28Z"  />
<glyph unicode="&#xE1;" horiz-adv-x="440" d="M281 556H240L388 700H448L281 556ZM270 0L281 51Q256 20 226 4T158 -12Q132 -12 108 -4T66 19T36 59T25 116Q25 156 37 191T72 253T124 294T190 309Q232 309 267 291T322 237L344 332Q346 341 347 351T348 371Q348 408 321 429T246 451Q212 451 181 437T124 398L105 436Q139 465 176 480T254 495Q285 495 312 488T358 467T389 432T401 381Q401 358 395 333L321 0H270ZM175 28Q242 28 290 92L315 198Q301 233 270 251T200 269Q172 269 150 256T112 222T88 175T79 121Q79 73 106 51T175 28Z"  />
<glyph unicode="&#xE2;" horiz-adv-x="440" d="M371 556L320 668L224 556H186L300 700H352L405 556H371ZM270 0L281 51Q256 20 226 4T158 -12Q132 -12 108 -4T66 19T36 59T25 116Q25 156 37 191T72 253T124 294T190 309Q232 309 267 291T322 237L344 332Q346 341 347 351T348 371Q348 408 321 429T246 451Q212 451 181 437T124 398L105 436Q139 465 176 480T254 495Q285 495 312 488T358 467T389 432T401 381Q401 358 395 333L321 0H270ZM175 28Q242 28 290 92L315 198Q301 233 270 251T200 269Q172 269 150 256T112 222T88 175T79 121Q79 73 106 51T175 28Z"  />
<glyph unicode="&#xE3;" horiz-adv-x="440" d="M351 554Q325 554 315 570T299 605T286 641T260 657Q241 657 226 634T199 560H165Q171 588 180 612T201 655T230 683T267 694Q293 694 303 678T319 643T332 607T357 591Q377 591 392 614T420 688H454Q448 660 439 636T417 593T388 565T351 554ZM270 0L281 51Q256 20 226 4T158 -12Q132 -12 108 -4T66 19T36 59T25 116Q25 156 37 191T72 253T124 294T190 309Q232 309 267 291T322 237L344 332Q346 341 347 351T348 371Q348 408 321 429T246 451Q212 451 181 437T124 398L105 436Q139 465 176 480T254 495Q285 495 312 488T358 467T389 432T401 381Q401 358 395 333L321 0H270ZM175 28Q242 28 290 92L315 198Q301 233 270 251T200 269Q172 269 150 256T112 222T88 175T79 121Q79 73 106 51T175 28Z"  />
<glyph unicode="&#xE4;" horiz-adv-x="440" d="M423 605Q423 588 411 576T383 564Q369 564 360 573T350 597Q350 614 362 625T391 637Q405 637 414 628T423 605ZM255 605Q255 588 243 576T214 564Q200 564 191 573T182 597Q182 614 194 625T223 637Q237 637 246 628T255 605ZM270 0L281 51Q256 20 226 4T158 -12Q132 -12 108 -4T66 19T36 59T25 116Q25 156 37 191T72 253T124 294T190 309Q232 309 267 291T322 237L344 332Q346 341 347 351T348 371Q348 408 321 429T246 451Q212 451 181 437T124 398L105 436Q139 465 176 480T254 495Q285 495 312 488T358 467T389 432T401 381Q401 358 395 333L321 0H270ZM175 28Q242 28 290 92L315 198Q301 233 270 251T200 269Q172 269 150 256T112 222T88 175T79 121Q79 73 106 51T175 28Z"  />
<glyph unicode="&#xE5;" horiz-adv-x="440" d="M303 557Q268 557 246 579T224 637Q224 656 232 674T253 705T283 726T321 734Q356 734 378 712T400 654Q400 634 392 617T371 586T340 565T303 557ZM305 588Q331 588 350 606T369 651Q369 674 356 688T319 703Q293 703 274 685T255 640Q255 617 268 603T305 588ZM270 0L281 51Q256 20 226 4T158 -12Q132 -12 108 -4T66 19T36 59T25 116Q25 156 37 191T72 253T124 294T190 309Q232 309 267 291T322 237L344 332Q346 341 347 351T348 371Q348 408 321 429T246 451Q212 451 181 437T124 398L105 436Q139 465 176 480T254 495Q285 495 312 488T358 467T389 432T401 381Q401 358 395 333L321 0H270ZM175 28Q242 28 290 92L315 198Q301 233 270 251T200 269Q172 269 150 256T112 222T88 175T79 121Q79 73 106 51T175 28Z"  />
<glyph unicode="&#xE6;" horiz-adv-x="738" d="M371 225Q368 214 367 200T365 172Q365 112 397 72T494 31Q526 31 556 46T611 87L635 53Q605 23 569 6T492 -12Q427 -12 388 16T333 88Q319 71 303 54T266 22T219 -2T160 -12Q133 -12 109 -4T66 20T36 60T25 117Q25 160 38 195T73 255T126 295T190 309Q230 309 268 292T323 240L344 332Q346 342 347 351T348 370Q348 409 320 430T247 451Q212 451 183 438T124 398L105 436Q174 495 254 495Q315 495 349 470T386 390Q408 435 449 465T545 495Q615 495 658 451T702 319Q702 295 698 268T689 225H371ZM647 265Q651 278 652 291T653 317Q653 376 624 414T539 452Q504 452 478 434T432 389T399 328T379 265H647ZM316 122Q312 139 312 167Q312 175 312 184T314 199Q308 217 297 230T269 252T236 265T200 269Q173 269 151 257T113 224T89 176T80 121Q80 75 106 52T175 28Q251 28 316 122Z"  />
<glyph unicode="&#xE7;" horiz-adv-x="400" d="M154 -189Q125 -189 103 -179T64 -152L87 -123Q114 -156 157 -156Q186 -156 201 -141T216 -103Q216 -89 208 -81T183 -72Q164 -72 150 -89L126 -73L164 -8Q107 3 72 49T37 175Q37 229 53 285T101 388T175 465T273 495Q320 495 352 477T405 426L370 394Q354 423 329 436T274 450Q230 450 196 423T138 354T103 265T91 173Q91 101 124 67T211 33Q241 33 265 46T309 81L332 45Q305 17 276 3T205 -12H199L172 -57Q184 -46 201 -46Q224 -46 238 -61T253 -102Q253 -139 225 -164T154 -189Z"  />
<glyph unicode="&#xE8;" horiz-adv-x="464" d="M216 -12Q131 -12 84 37T37 174Q37 221 52 277T97 381T170 462T269 495Q343 495 385 449T428 319Q428 295 424 270T415 225H94Q89 197 89 172Q89 142 97 117T121 72T162 42T220 31Q249 31 280 46T337 87L360 53Q331 23 294 6T216 -12ZM373 265Q379 290 379 319Q379 347 372 371T351 413T315 441T265 452Q233 452 206 435T157 392T121 332T101 265H369H373ZM319 556L216 700H274L358 556H319Z"  />
<glyph unicode="&#xE9;" horiz-adv-x="464" d="M216 -12Q131 -12 84 37T37 174Q37 221 52 277T97 381T170 462T269 495Q343 495 385 449T428 319Q428 295 424 270T415 225H94Q89 197 89 172Q89 142 97 117T121 72T162 42T220 31Q249 31 280 46T337 87L360 53Q331 23 294 6T216 -12ZM373 265Q379 290 379 319Q379 347 372 371T351 413T315 441T265 452Q233 452 206 435T157 392T121 332T101 265H369H373ZM292 556H251L399 700H459L292 556Z"  />
<glyph unicode="&#xEA;" horiz-adv-x="464" d="M216 -12Q131 -12 84 37T37 174Q37 221 52 277T97 381T170 462T269 495Q343 495 385 449T428 319Q428 295 424 270T415 225H94Q89 197 89 172Q89 142 97 117T121 72T162 42T220 31Q249 31 280 46T337 87L360 53Q331 23 294 6T216 -12ZM373 265Q379 290 379 319Q379 347 372 371T351 413T315 441T265 452Q233 452 206 435T157 392T121 332T101 265H369H373ZM381 556L330 668L234 556H196L310 700H362L415 556H381Z"  />
<glyph unicode="&#xEB;" horiz-adv-x="464" d="M216 -12Q131 -12 84 37T37 174Q37 221 52 277T97 381T170 462T269 495Q343 495 385 449T428 319Q428 295 424 270T415 225H94Q89 197 89 172Q89 142 97 117T121 72T162 42T220 31Q249 31 280 46T337 87L360 53Q331 23 294 6T216 -12ZM373 265Q379 290 379 319Q379 347 372 371T351 413T315 441T265 452Q233 452 206 435T157 392T121 332T101 265H369H373ZM434 605Q434 588 422 576T394 564Q380 564 371 573T361 597Q361 614 373 625T402 637Q416 637 425 628T434 605ZM266 605Q266 588 254 576T225 564Q211 564 202 573T193 597Q193 614 205 625T234 637Q248 637 257 628T266 605Z"  />
<glyph unicode="&#xEC;" horiz-adv-x="192" d="M178 556L75 700H133L217 556H178ZM17 0L124 483H174L67 0H17Z"  />
<glyph unicode="&#xED;" horiz-adv-x="192" d="M152 556H111L259 700H319L152 556ZM17 0L124 483H174L67 0H17Z"  />
<glyph unicode="&#xEE;" horiz-adv-x="192" d="M241 556L190 668L94 556H56L170 700H222L275 556H241ZM17 0L124 483H174L67 0H17Z"  />
<glyph unicode="&#xEF;" horiz-adv-x="192" d="M295 605Q295 588 283 576T255 564Q241 564 232 573T222 597Q222 614 234 625T263 637Q277 637 286 628T295 605ZM127 605Q127 588 115 576T86 564Q72 564 63 573T54 597Q54 614 66 625T95 637Q109 637 118 628T127 605ZM17 0L124 483H174L67 0H17Z"  />
<glyph unicode="&#xF0;" horiz-adv-x="470" d="M173 555L301 593Q290 612 277 629T250 661L295 689Q311 669 325 649T353 609L450 638L457 606L370 580Q402 525 418 470T435 356Q435 294 420 229T375 111T302 23T203 -12Q124 -12 81 37T37 168Q37 223 53 280T99 383T169 458T258 488Q295 488 330 468T382 400Q372 439 356 481T318 564L181 523L173 555ZM204 33Q242 33 273 61T328 130T363 221T376 312Q376 334 370 357T350 399T315 430T262 442Q224 442 193 415T139 347T104 258T91 169Q91 101 121 67T204 33Z"  />
<glyph unicode="&#xF1;" horiz-adv-x="450" d="M276 0L354 355Q356 362 357 370T359 386Q359 420 339 435T285 450Q266 450 247 443T210 423T177 395T148 363L68 0H18L125 483H175L160 413Q188 446 225 470T305 495Q353 495 382 472T412 401Q412 395 411 383T407 364L327 0H276ZM352 554Q326 554 316 570T300 605T287 641T261 657Q242 657 227 634T200 560H166Q172 588 181 612T202 655T231 683T268 694Q294 694 304 678T320 643T333 607T358 591Q378 591 393 614T421 688H455Q449 660 440 636T418 593T389 565T352 554Z"  />
<glyph unicode="&#xF2;" horiz-adv-x="470" d="M200 -12Q125 -12 81 34T37 169Q37 223 53 281T99 386T172 464T269 495Q343 495 387 449T431 314Q431 260 415 202T369 97T296 19T200 -12ZM202 33Q241 33 273 61T329 131T365 222T378 314Q378 382 348 416T266 450Q227 450 195 422T139 352T103 261T90 169Q90 101 120 67T202 33ZM318 556L215 700H273L357 556H318Z"  />
<glyph unicode="&#xF3;" horiz-adv-x="470" d="M200 -12Q125 -12 81 34T37 169Q37 223 53 281T99 386T172 464T269 495Q343 495 387 449T431 314Q431 260 415 202T369 97T296 19T200 -12ZM202 33Q241 33 273 61T329 131T365 222T378 314Q378 382 348 416T266 450Q227 450 195 422T139 352T103 261T90 169Q90 101 120 67T202 33ZM291 556H250L398 700H458L291 556Z"  />
<glyph unicode="&#xF4;" horiz-adv-x="470" d="M200 -12Q125 -12 81 34T37 169Q37 223 53 281T99 386T172 464T269 495Q343 495 387 449T431 314Q431 260 415 202T369 97T296 19T200 -12ZM202 33Q241 33 273 61T329 131T365 222T378 314Q378 382 348 416T266 450Q227 450 195 422T139 352T103 261T90 169Q90 101 120 67T202 33ZM380 556L329 668L233 556H195L309 700H361L414 556H380Z"  />
<glyph unicode="&#xF5;" horiz-adv-x="470" d="M200 -12Q125 -12 81 34T37 169Q37 223 53 281T99 386T172 464T269 495Q343 495 387 449T431 314Q431 260 415 202T369 97T296 19T200 -12ZM202 33Q241 33 273 61T329 131T365 222T378 314Q378 382 348 416T266 450Q227 450 195 422T139 352T103 261T90 169Q90 101 120 67T202 33ZM361 554Q335 554 325 570T309 605T296 641T270 657Q251 657 236 634T209 560H175Q181 588 190 612T211 655T240 683T277 694Q303 694 313 678T329 643T342 607T367 591Q387 591 402 614T430 688H464Q458 660 449 636T427 593T398 565T361 554Z"  />
<glyph unicode="&#xF6;" horiz-adv-x="470" d="M200 -12Q125 -12 81 34T37 169Q37 223 53 281T99 386T172 464T269 495Q343 495 387 449T431 314Q431 260 415 202T369 97T296 19T200 -12ZM202 33Q241 33 273 61T329 131T365 222T378 314Q378 382 348 416T266 450Q227 450 195 422T139 352T103 261T90 169Q90 101 120 67T202 33ZM434 605Q434 588 422 576T394 564Q380 564 371 573T361 597Q361 614 373 625T402 637Q416 637 425 628T434 605ZM266 605Q266 588 254 576T225 564Q211 564 202 573T193 597Q193 614 205 625T234 637Q248 637 257 628T266 605Z"  />
<glyph unicode="&#xF7;" horiz-adv-x="443" d="M45 317L54 357H439L429 317H45ZM201 127Q186 127 176 137T165 163Q165 180 177 192T208 204Q223 204 233 194T243 169Q243 151 231 139T201 127ZM276 465Q261 465 251 475T240 501Q240 518 253 530T283 543Q298 543 308 533T318 507Q318 490 306 478T276 465Z"  />
<glyph unicode="&#xF8;" horiz-adv-x="470" d="M8 0L61 63Q37 105 37 169Q37 223 53 281T99 386T172 464T269 495Q343 495 386 449L414 483H456L405 422Q431 379 431 314Q431 260 415 202T369 97T296 19T200 -12Q124 -12 80 35L51 0H8ZM202 33Q241 33 273 61T329 131T365 222T378 314Q378 352 368 378L114 75Q142 33 202 33ZM90 169Q90 135 98 108L352 410Q323 450 266 450Q227 450 195 422T139 352T103 261T90 169Z"  />
<glyph unicode="&#xF9;" horiz-adv-x="450" d="M174 483L96 128Q94 121 93 113T91 97Q91 63 111 48T166 33Q204 33 239 59T301 118L382 483H433L326 0H275L290 70Q262 37 226 13T146 -12Q97 -12 68 11T38 82Q38 88 39 100T43 119L123 483H174ZM309 556L206 700H264L348 556H309Z"  />
<glyph unicode="&#xFA;" horiz-adv-x="450" d="M174 483L96 128Q94 121 93 113T91 97Q91 63 111 48T166 33Q204 33 239 59T301 118L382 483H433L326 0H275L290 70Q262 37 226 13T146 -12Q97 -12 68 11T38 82Q38 88 39 100T43 119L123 483H174ZM282 556H241L389 700H449L282 556Z"  />
<glyph unicode="&#xFB;" horiz-adv-x="450" d="M174 483L96 128Q94 121 93 113T91 97Q91 63 111 48T166 33Q204 33 239 59T301 118L382 483H433L326 0H275L290 70Q262 37 226 13T146 -12Q97 -12 68 11T38 82Q38 88 39 100T43 119L123 483H174ZM370 556L319 668L223 556H185L299 700H351L404 556H370Z"  />
<glyph unicode="&#xFC;" horiz-adv-x="450" d="M174 483L96 128Q94 121 93 113T91 97Q91 63 111 48T166 33Q204 33 239 59T301 118L382 483H433L326 0H275L290 70Q262 37 226 13T146 -12Q97 -12 68 11T38 82Q38 88 39 100T43 119L123 483H174ZM427 605Q427 588 415 576T387 564Q373 564 364 573T354 597Q354 614 366 625T395 637Q409 637 418 628T427 605ZM259 605Q259 588 247 576T218 564Q204 564 195 573T186 597Q186 614 198 625T227 637Q241 637 250 628T259 605Z"  />
<glyph unicode="&#xFD;" horiz-adv-x="450" d="M280 556H239L387 700H447L280 556ZM132 -196Q18 -196 -33 -128L2 -89Q22 -120 56 -135T132 -151Q189 -151 222 -115T272 -13L291 74Q261 41 226 17T146 -8Q100 -8 70 15T39 86Q39 93 40 102T44 123L124 483H174L96 133Q93 115 93 100Q93 66 114 52T167 38Q205 38 241 64T302 123L382 483H433L322 -13Q301 -107 253 -151T132 -196Z"  />
<glyph unicode="&#xFE;" horiz-adv-x="468" d="M214 -12Q170 -12 136 11T84 77L26 -184H-24L164 667H214L159 414Q185 453 219 474T292 495Q356 495 394 451T433 327Q433 292 427 254T407 177T375 105T332 45T278 4T214 -12ZM209 33Q249 33 280 62T334 135T367 229T379 321Q379 384 352 417T276 450Q237 450 202 422T146 358L94 123Q105 86 135 60T209 33Z"  />
<glyph unicode="&#xFF;" horiz-adv-x="450" d="M422 605Q422 588 410 576T382 564Q368 564 359 573T349 597Q349 614 361 625T390 637Q404 637 413 628T422 605ZM254 605Q254 588 242 576T213 564Q199 564 190 573T181 597Q181 614 193 625T222 637Q236 637 245 628T254 605ZM132 -196Q18 -196 -33 -128L2 -89Q22 -120 56 -135T132 -151Q189 -151 222 -115T272 -13L291 74Q261 41 226 17T146 -8Q100 -8 70 15T39 86Q39 93 40 102T44 123L124 483H174L96 133Q93 115 93 100Q93 66 114 52T167 38Q205 38 241 64T302 123L382 483H433L322 -13Q301 -107 253 -151T132 -196Z"  />
<glyph unicode="&#x152;" horiz-adv-x="847" d="M413 0L433 93Q396 37 349 13T247 -12Q203 -12 168 5T107 53T69 127T55 223Q55 270 65 322T94 424T140 521T203 601T279 656T369 677Q394 677 419 671T467 651T507 611T535 549L560 667H886L876 617H605L550 367H814L802 317H539L480 50H750L739 0H413ZM515 460Q507 541 469 583T365 626Q310 626 264 587T185 487T133 356T114 222Q114 140 153 90T263 39Q318 39 369 77T454 183L515 460Z"  />
<glyph unicode="&#x153;" horiz-adv-x="783" d="M418 225Q417 222 416 215T415 200T414 184T413 172Q413 109 446 70T542 31Q572 31 601 45T657 87L681 53Q651 22 615 5T539 -12Q501 -12 472 0T422 31T391 74T376 123Q363 99 347 75T310 32T261 0T198 -12Q123 -12 80 34T37 169Q37 226 53 284T99 389T171 465T267 495Q302 495 328 483T373 452T401 410T413 362Q425 386 442 410T481 452T530 483T592 495Q664 495 706 450T748 319Q748 293 744 268T735 225H418ZM693 265Q696 275 698 291T700 319Q700 379 672 415T587 452Q553 452 526 434T477 389T443 328T425 265H693ZM374 314Q374 350 366 375T342 417T307 442T264 450Q225 450 193 423T138 353T103 262T90 169Q90 105 118 69T200 33Q239 33 271 61T326 131T361 222T374 314Z"  />
<glyph unicode="&#x160;" horiz-adv-x="453" d="M314 728L261 872H295L345 760L442 872H480L366 728H314ZM197 -12Q134 -12 82 14T5 79L45 120Q69 82 109 61T199 39Q232 39 258 50T303 82T332 129T342 186Q342 219 325 243T281 288T225 328T168 371T125 424T107 493Q107 532 122 565T165 624T227 663T301 678Q355 678 401 657T472 600L434 560Q411 594 375 610T299 627Q270 627 246 617T205 588T177 547T167 499Q167 469 184 447T228 404T284 363T340 318T383 264T401 192Q401 151 387 115T347 50T282 5T197 -12Z"  />
<glyph unicode="&#x161;" horiz-adv-x="377" d="M152 -12Q99 -12 60 6T-3 63L32 96Q48 69 79 50T153 31Q177 31 197 39T231 60T253 92T261 129Q261 154 247 172T212 205T165 234T119 265T83 304T69 356Q69 384 79 409T109 454T157 484T222 495Q270 495 307 476T362 427L329 394Q316 420 285 436T219 452Q174 452 147 428T120 366Q120 343 134 326T170 295T216 266T263 234T298 194T313 140Q313 110 302 83T270 34T219 1T152 -12ZM233 556L180 700H214L264 588L361 700H399L285 556H233Z"  />
<glyph unicode="&#x178;" horiz-adv-x="483" d="M482 773Q482 756 470 744T442 732Q428 732 419 741T409 765Q409 782 421 793T450 805Q464 805 473 796T482 773ZM314 773Q314 756 302 744T273 732Q259 732 250 741T241 765Q241 782 253 793T282 805Q296 805 305 796T314 773ZM160 0L223 286L101 667H161L259 342L502 667H568L279 286L216 0H160Z"  />
<glyph unicode="&#x17D;" horiz-adv-x="453" d="M309 728L256 872H290L340 760L437 872H475L361 728H309ZM-12 0L-1 49L417 617H125L135 667H497L487 619L67 50H368L357 0H-12Z"  />
<glyph unicode="&#x17E;" horiz-adv-x="379" d="M-7 0L1 42L308 438H90L100 483H382L373 442L65 45H288L279 0H-7ZM230 556L177 700H211L261 588L358 700H396L282 556H230Z"  />
<glyph unicode="&#x192;" horiz-adv-x="386" d="M-25 -161L69 261H7V308H79L134 555Q147 612 178 644T260 677Q283 677 304 670T342 645L314 606Q305 617 293 622T267 627Q235 627 216 605T188 546L136 308H259V261H125L32 -161H-25Z"  />
<glyph unicode="&#x2C6;" horiz-adv-x="219" d="M254 556L203 668L107 556H69L183 700H235L288 556H254Z"  />
<glyph unicode="&#x2DC;" horiz-adv-x="261" d="M256 554Q230 554 220 570T204 605T191 641T165 657Q146 657 131 634T104 560H70Q76 588 85 612T106 655T135 683T172 694Q198 694 208 678T224 643T237 607T262 591Q282 591 297 614T325 688H359Q353 660 344 636T322 593T293 565T256 554Z"  />
<glyph unicode="&#x2013;" horiz-adv-x="527" d="M24 219L34 265H500L491 219H24Z"  />
<glyph unicode="&#x2014;" horiz-adv-x="737" d="M24 219L34 265H710L701 219H24Z"  />
<glyph unicode="&#x2018;" horiz-adv-x="218" d="M123 532Q123 553 131 574T154 615T186 651T224 677L248 651Q220 637 199 614T170 567H177Q191 567 201 557T211 532Q211 512 197 499T164 485Q147 485 135 497T123 532Z"  />
<glyph unicode="&#x2019;" horiz-adv-x="218" d="M241 630Q241 609 233 588T210 547T178 511T139 485L115 511Q143 525 164 548T193 595Q192 594 190 594T186 594Q172 594 162 604T152 630Q152 650 166 663T199 677Q216 677 228 665T241 630Z"  />
<glyph unicode="&#x201A;" horiz-adv-x="218" d="M107 29Q107 8 99 -13T76 -54T44 -90T6 -116L-18 -90Q10 -76 31 -53T60 -6H53Q39 -6 29 4T19 30Q19 49 33 62T65 76Q83 76 95 64T107 29Z"  />
<glyph unicode="&#x201C;" horiz-adv-x="359" d="M267 532Q267 553 275 574T298 615T330 651T368 677L392 651Q364 637 343 614T314 567H321Q335 567 345 557T355 532Q355 512 341 499T309 485Q291 485 279 497T267 532ZM128 532Q128 553 136 574T159 615T191 651T229 677L253 651Q225 637 204 614T176 567H183Q197 567 206 557T216 532Q216 512 202 499T170 485Q152 485 140 497T128 532Z"  />
<glyph unicode="&#x201D;" horiz-adv-x="359" d="M241 630Q241 609 233 588T210 547T178 511T139 485L115 511Q143 525 164 548T193 595Q192 594 190 594T186 594Q172 594 162 604T152 630Q152 650 166 663T199 677Q216 677 228 665T241 630ZM380 630Q380 609 372 588T349 547T317 511T278 485L254 511Q282 525 303 548T332 595Q331 594 329 594T325 594Q311 594 301 604T291 630Q291 650 305 663T338 677Q355 677 367 665T380 630Z"  />
<glyph unicode="&#x201E;" horiz-adv-x="359" d="M107 29Q107 8 99 -13T76 -54T44 -90T6 -116L-18 -90Q10 -76 31 -53T60 -6H53Q39 -6 29 4T19 30Q19 49 33 62T65 76Q83 76 95 64T107 29ZM246 29Q246 8 238 -13T215 -54T183 -90T145 -116L121 -90Q149 -76 170 -53T199 -6H192Q178 -6 168 4T158 30Q158 49 172 62T204 76Q222 76 234 64T246 29Z"  />
<glyph unicode="&#x2020;" horiz-adv-x="257" d="M209 539L166 327H127L178 539L88 535L96 570L184 567L205 677H244L215 567L305 570L297 535L209 539Z"  />
<glyph unicode="&#x2021;" horiz-adv-x="257" d="M297 535L209 539L160 318L250 322L242 287L154 290L133 180H94L123 290L33 287L41 322L129 318L178 539L88 535L96 570L184 567L205 677H244L215 567L305 570L297 535Z"  />
<glyph unicode="&#x2022;" horiz-adv-x="358" d="M282 252Q282 229 273 209T248 174T211 150T168 141Q128 141 102 167T76 233Q76 255 85 275T110 311T146 335T190 344Q230 344 256 318T282 252Z"  />
<glyph unicode="&#x2026;" horiz-adv-x="655" d="M58 -10Q41 -10 30 1T19 30Q19 50 32 63T66 76Q83 76 94 65T106 37Q106 17 92 4T58 -10ZM277 -10Q260 -10 249 1T237 30Q237 50 251 63T284 76Q301 76 312 65T324 37Q324 17 311 4T277 -10ZM495 -10Q478 -10 467 1T455 30Q455 50 469 63T503 76Q520 76 531 65T542 37Q542 17 529 4T495 -10Z"  />
<glyph unicode="&#x2030;" horiz-adv-x="948" d="M74 0L569 667H611L114 0H74ZM432 -12Q403 -12 381 -2T343 25T319 65T310 115Q310 158 323 195T359 258T410 300T469 315Q497 315 520 306T558 279T582 239T591 189Q591 145 578 109T542 45T491 3T432 -12ZM433 26Q454 26 474 38T511 71T537 122T547 185Q547 229 525 253T468 277Q447 277 427 265T390 232T364 181T354 118Q354 74 376 50T433 26ZM210 350Q153 350 121 386T88 476Q88 519 101 556T137 620T189 662T248 677Q276 677 298 667T337 640T361 600T370 550Q370 507 357 471T321 407T270 365T210 350ZM212 388Q233 388 253 400T290 433T315 484T325 547Q325 591 304 615T247 639Q225 639 205 627T168 594T143 543T133 480Q133 436 155 412T212 388ZM738 -12Q710 -12 688 -2T649 25T625 65T616 115Q616 158 629 195T665 258T717 300T776 315Q833 315 865 279T898 189Q898 145 885 109T849 45T798 3T738 -12ZM740 26Q761 26 781 38T818 71T843 122T853 185Q853 229 832 253T775 277Q753 277 733 265T696 232T671 181T661 118Q661 74 683 50T740 26Z"  />
<glyph unicode="&#x2039;" horiz-adv-x="236" d="M114 63L29 243L194 420H248L80 239L162 63H114Z"  />
<glyph unicode="&#x203A;" horiz-adv-x="236" d="M123 420L208 240L43 63H-11L158 245L75 420H123Z"  />
<glyph unicode="&#x20AC;" horiz-adv-x="538" d="M282 -12Q235 -12 197 3T131 49T88 123T72 223V242H25L34 283H75Q81 334 96 385H57L66 426H109Q128 477 155 523T217 603T293 658T380 678Q452 678 499 640T570 537L517 520Q497 576 461 601T376 627Q344 627 314 611T258 568T210 504T172 426H403L393 385H157Q149 359 144 334T135 283H371L361 242H131V222Q131 134 172 87T286 39Q361 39 430 120L472 92Q389 -12 282 -12Z"  />
<glyph unicode="&#x2122;" horiz-adv-x="414" d="M396 447L436 629L331 447H323L298 629L258 447H230L278 667H321L341 509L429 667H472L424 447H396ZM185 641L142 447H114L157 641H105L110 667H242L237 641H185Z"  />


</font>
</defs>
</svg>
